<svg width="230" height="109" viewBox="0 0 230 109" fill="none" xmlns="http://www.w3.org/2000/svg">
<path d="M1 14.5V6H9" stroke="#CDD6EE"/>
<path d="M9.5 108.25L1 108.25L1 100.25" stroke="#CDD6EE"/>
<path d="M186 99.75L186 108.25L178 108.25" stroke="#CDD6EE"/>
<rect x="14" y="33" width="4" height="71" fill="#217AFF"/>
<rect x="35" y="24" width="4" height="80" fill="#217AFF"/>
<rect x="55" y="41" width="4" height="63" fill="#217AFF"/>
<rect x="75.25" y="41" width="4" height="63" fill="#217AFF"/>
<rect x="96" y="28" width="4" height="76" fill="#217AFF"/>
<rect x="117.25" y="28" width="4" height="76" fill="#217AFF"/>
<rect x="138" y="24" width="4" height="80" fill="#217AFF"/>
<rect x="159" y="25" width="4" height="79" fill="#217AFF"/>
<rect x="20" y="90" width="4" height="14" fill="#FB9B2B"/>
<rect x="9" y="89" width="4" height="14" fill="#D1CB33"/>
<rect x="30" y="85" width="4" height="18" fill="#D1CB33"/>
<rect x="50" y="85" width="4" height="18" fill="#D1CB33"/>
<rect x="70" y="85" width="4" height="18" fill="#D1CB33"/>
<rect x="91" y="85" width="4" height="18" fill="#D1CB33"/>
<rect x="112" y="85" width="4" height="18" fill="#D1CB33"/>
<rect x="133" y="79" width="4" height="24" fill="#D1CB33"/>
<rect x="154" y="80" width="4" height="23" fill="#D1CB33"/>
<rect x="41" y="90" width="4" height="14" fill="#FB9B2B"/>
<rect x="61" y="90" width="4" height="14" fill="#FB9B2B"/>
<rect x="81" y="90" width="4" height="14" fill="#FB9B2B"/>
<rect x="102" y="90" width="4" height="14" fill="#FB9B2B"/>
<rect x="123" y="90" width="4" height="14" fill="#FB9B2B"/>
<rect x="144" y="85" width="4" height="19" fill="#FB9B2B"/>
<rect x="165" y="86" width="4" height="18" fill="#FB9B2B"/>
<rect x="8.25" y="103" width="170" height="1" fill="#0056D0"/>
<rect x="16.9571" y="103.536" width="4" height="4" transform="rotate(-45 16.9571 103.536)" fill="#112054" stroke="#627DAE"/>
<rect x="36.9571" y="103.536" width="4" height="4" transform="rotate(-45 36.9571 103.536)" fill="#112054" stroke="#627DAE"/>
<rect x="56.9571" y="103.536" width="4" height="4" transform="rotate(-45 56.9571 103.536)" fill="#112054" stroke="#627DAE"/>
<rect x="76.9571" y="103.536" width="4" height="4" transform="rotate(-45 76.9571 103.536)" fill="#112054" stroke="#627DAE"/>
<rect x="97.9571" y="103.536" width="4" height="4" transform="rotate(-45 97.9571 103.536)" fill="#112054" stroke="#627DAE"/>
<rect x="118.957" y="103.536" width="4" height="4" transform="rotate(-45 118.957 103.536)" fill="#112054" stroke="#627DAE"/>
<rect x="139.957" y="103.536" width="4" height="4" transform="rotate(-45 139.957 103.536)" fill="#112054" stroke="#627DAE"/>
<rect x="160.957" y="103.536" width="4" height="4" transform="rotate(-45 160.957 103.536)" fill="#112054" stroke="#627DAE"/>
<g filter="url(#filter0_d_2008_281)">
<path d="M220 55.4259V1H171.254L166 7.5955V64H213.17L220 55.4259Z" fill="#112054"/>
<path d="M220 0.5H220.5V1V55.4259V55.6007L220.391 55.7374L213.561 64.3115L213.411 64.5H213.17H166H165.5V64V7.5955V7.4207L165.609 7.28397L170.863 0.688476L171.013 0.5H171.254H220Z" stroke="#217AFF"/>
</g>
<rect x="171.414" y="26.9497" width="5" height="5" transform="rotate(-45 171.414 26.9497)" stroke="#217AFF" stroke-width="2"/>
<rect x="171.414" y="41.9497" width="5" height="5" transform="rotate(-45 171.414 41.9497)" stroke="#FB9B2B" stroke-width="2"/>
<path d="M188.51 29.9V31H183.35V30.13L186.13 27.49C186.443 27.19 186.653 26.93 186.76 26.71C186.873 26.4833 186.93 26.26 186.93 26.04C186.93 25.7133 186.82 25.4633 186.6 25.29C186.38 25.1167 186.057 25.03 185.63 25.03C184.917 25.03 184.37 25.2733 183.99 25.76L183.08 25.06C183.353 24.6933 183.72 24.41 184.18 24.21C184.647 24.0033 185.167 23.9 185.74 23.9C186.5 23.9 187.107 24.08 187.56 24.44C188.013 24.8 188.24 25.29 188.24 25.91C188.24 26.29 188.16 26.6467 188 26.98C187.84 27.3133 187.533 27.6933 187.08 28.12L185.21 29.9H188.51ZM195.354 29.41H194.114V31H192.854V29.41H189.014V28.51L192.464 24H193.854L190.604 28.31H192.894V26.9H194.114V28.31H195.354V29.41ZM201.585 31.1C201.025 31.1 200.525 30.96 200.085 30.68C199.645 30.3933 199.298 29.98 199.045 29.44C198.791 28.8933 198.665 28.2467 198.665 27.5C198.665 26.7533 198.791 26.11 199.045 25.57C199.298 25.0233 199.645 24.61 200.085 24.33C200.525 24.0433 201.025 23.9 201.585 23.9C202.145 23.9 202.645 24.0433 203.085 24.33C203.531 24.61 203.881 25.0233 204.135 25.57C204.388 26.11 204.515 26.7533 204.515 27.5C204.515 28.2467 204.388 28.8933 204.135 29.44C203.881 29.98 203.531 30.3933 203.085 30.68C202.645 30.96 202.145 31.1 201.585 31.1ZM201.585 29.97C202.085 29.97 202.478 29.7633 202.765 29.35C203.058 28.9367 203.205 28.32 203.205 27.5C203.205 26.68 203.058 26.0633 202.765 25.65C202.478 25.2367 202.085 25.03 201.585 25.03C201.091 25.03 200.698 25.2367 200.405 25.65C200.118 26.0633 199.975 26.68 199.975 27.5C199.975 28.32 200.118 28.9367 200.405 29.35C200.698 29.7633 201.091 29.97 201.585 29.97ZM210.624 24V24.87L207.904 31H206.514L209.144 25.1H206.394V26.29H205.184V24H210.624ZM217.014 29.41H215.774V31H214.514V29.41H210.674V28.51L214.124 24H215.514L212.264 28.31H214.554V26.9H215.774V28.31H217.014V29.41Z" fill="white"/>
<path d="M186.42 40.89C187.067 40.97 187.56 41.19 187.9 41.55C188.24 41.91 188.41 42.36 188.41 42.9C188.41 43.3067 188.307 43.6767 188.1 44.01C187.893 44.3433 187.58 44.61 187.16 44.81C186.747 45.0033 186.24 45.1 185.64 45.1C185.14 45.1 184.657 45.03 184.19 44.89C183.73 44.7433 183.337 44.5433 183.01 44.29L183.57 43.28C183.823 43.4933 184.13 43.6633 184.49 43.79C184.857 43.91 185.233 43.97 185.62 43.97C186.08 43.97 186.44 43.8767 186.7 43.69C186.967 43.4967 187.1 43.2367 187.1 42.91C187.1 42.5833 186.973 42.33 186.72 42.15C186.473 41.9633 186.093 41.87 185.58 41.87H184.94V40.98L186.53 39.09H183.35V38H188.12V38.87L186.42 40.89ZM198.264 43.41H197.024V45H195.764V43.41H191.924V42.51L195.374 38H196.764L193.514 42.31H195.804V40.9H197.024V42.31H198.264V43.41ZM201.122 37.9C202.082 37.9 202.826 38.2 203.352 38.8C203.886 39.4 204.152 40.26 204.152 41.38C204.152 42.1667 204.009 42.84 203.722 43.4C203.436 43.9533 203.032 44.3767 202.512 44.67C201.999 44.9567 201.402 45.1 200.722 45.1C200.362 45.1 200.022 45.0633 199.702 44.99C199.389 44.91 199.116 44.7967 198.882 44.65L199.362 43.67C199.709 43.8967 200.152 44.01 200.692 44.01C201.366 44.01 201.892 43.8033 202.272 43.39C202.652 42.9767 202.842 42.38 202.842 41.6V41.59C202.636 41.83 202.372 42.0133 202.052 42.14C201.732 42.26 201.372 42.32 200.972 42.32C200.512 42.32 200.099 42.2333 199.732 42.06C199.366 41.88 199.079 41.6267 198.872 41.3C198.666 40.9733 198.562 40.5967 198.562 40.17C198.562 39.7167 198.676 39.32 198.902 38.98C199.129 38.6333 199.436 38.3667 199.822 38.18C200.209 37.9933 200.642 37.9 201.122 37.9ZM201.222 41.3C201.642 41.3 201.982 41.1867 202.242 40.96C202.509 40.7333 202.642 40.4467 202.642 40.1C202.642 39.76 202.512 39.48 202.252 39.26C201.999 39.0333 201.646 38.92 201.192 38.92C200.786 38.92 200.456 39.03 200.202 39.25C199.949 39.4633 199.822 39.75 199.822 40.11C199.822 40.4767 199.949 40.7667 200.202 40.98C200.456 41.1933 200.796 41.3 201.222 41.3ZM207.222 40.71C208.208 40.71 208.938 40.9033 209.412 41.29C209.885 41.67 210.122 42.19 210.122 42.85C210.122 43.27 210.018 43.65 209.812 43.99C209.605 44.33 209.295 44.6 208.882 44.8C208.468 45 207.958 45.1 207.352 45.1C206.852 45.1 206.368 45.03 205.902 44.89C205.435 44.7433 205.042 44.5433 204.722 44.29L205.272 43.28C205.532 43.4933 205.842 43.6633 206.202 43.79C206.568 43.91 206.945 43.97 207.332 43.97C207.792 43.97 208.152 43.8767 208.412 43.69C208.678 43.4967 208.812 43.2333 208.812 42.9C208.812 42.54 208.668 42.27 208.382 42.09C208.102 41.9033 207.618 41.81 206.932 41.81H205.242L205.602 38H209.712V39.09H206.702L206.552 40.71H207.222Z" fill="white"/>
<rect x="171.414" y="55.9497" width="5" height="5" transform="rotate(-45 171.414 55.9497)" stroke="#D1CB33" stroke-width="2"/>
<path d="M186.42 54.89C187.067 54.97 187.56 55.19 187.9 55.55C188.24 55.91 188.41 56.36 188.41 56.9C188.41 57.3067 188.307 57.6767 188.1 58.01C187.893 58.3433 187.58 58.61 187.16 58.81C186.747 59.0033 186.24 59.1 185.64 59.1C185.14 59.1 184.657 59.03 184.19 58.89C183.73 58.7433 183.337 58.5433 183.01 58.29L183.57 57.28C183.823 57.4933 184.13 57.6633 184.49 57.79C184.857 57.91 185.233 57.97 185.62 57.97C186.08 57.97 186.44 57.8767 186.7 57.69C186.967 57.4967 187.1 57.2367 187.1 56.91C187.1 56.5833 186.973 56.33 186.72 56.15C186.473 55.9633 186.093 55.87 185.58 55.87H184.94V54.98L186.53 53.09H183.35V52H188.12V52.87L186.42 54.89ZM196.564 55.32C196.931 55.4867 197.211 55.7133 197.404 56C197.604 56.28 197.704 56.61 197.704 56.99C197.704 57.4167 197.584 57.79 197.344 58.11C197.111 58.43 196.777 58.6767 196.344 58.85C195.911 59.0167 195.407 59.1 194.834 59.1C194.261 59.1 193.757 59.0167 193.324 58.85C192.897 58.6767 192.567 58.43 192.334 58.11C192.101 57.79 191.984 57.4167 191.984 56.99C191.984 56.61 192.081 56.28 192.274 56C192.467 55.7133 192.744 55.4867 193.104 55.32C192.824 55.1667 192.607 54.9667 192.454 54.72C192.307 54.4667 192.234 54.1767 192.234 53.85C192.234 53.4567 192.341 53.1133 192.554 52.82C192.774 52.5267 193.081 52.3 193.474 52.14C193.867 51.98 194.321 51.9 194.834 51.9C195.354 51.9 195.811 51.98 196.204 52.14C196.597 52.3 196.904 52.5267 197.124 52.82C197.344 53.1133 197.454 53.4567 197.454 53.85C197.454 54.1767 197.377 54.4633 197.224 54.71C197.071 54.9567 196.851 55.16 196.564 55.32ZM194.834 52.92C194.427 52.92 194.104 53.0067 193.864 53.18C193.631 53.3533 193.514 53.5967 193.514 53.91C193.514 54.21 193.631 54.45 193.864 54.63C194.104 54.8033 194.427 54.89 194.834 54.89C195.247 54.89 195.574 54.8033 195.814 54.63C196.054 54.45 196.174 54.21 196.174 53.91C196.174 53.5967 196.051 53.3533 195.804 53.18C195.564 53.0067 195.241 52.92 194.834 52.92ZM194.834 58.08C195.314 58.08 195.694 57.98 195.974 57.78C196.254 57.58 196.394 57.3033 196.394 56.95C196.394 56.6033 196.254 56.33 195.974 56.13C195.694 55.93 195.314 55.83 194.834 55.83C194.354 55.83 193.977 55.93 193.704 56.13C193.431 56.33 193.294 56.6033 193.294 56.95C193.294 57.3033 193.431 57.58 193.704 57.78C193.977 57.98 194.354 58.08 194.834 58.08ZM200.907 51.9C201.867 51.9 202.611 52.2 203.137 52.8C203.671 53.4 203.937 54.26 203.937 55.38C203.937 56.1667 203.794 56.84 203.507 57.4C203.221 57.9533 202.817 58.3767 202.297 58.67C201.784 58.9567 201.187 59.1 200.507 59.1C200.147 59.1 199.807 59.0633 199.487 58.99C199.174 58.91 198.901 58.7967 198.667 58.65L199.147 57.67C199.494 57.8967 199.937 58.01 200.477 58.01C201.151 58.01 201.677 57.8033 202.057 57.39C202.437 56.9767 202.627 56.38 202.627 55.6V55.59C202.421 55.83 202.157 56.0133 201.837 56.14C201.517 56.26 201.157 56.32 200.757 56.32C200.297 56.32 199.884 56.2333 199.517 56.06C199.151 55.88 198.864 55.6267 198.657 55.3C198.451 54.9733 198.347 54.5967 198.347 54.17C198.347 53.7167 198.461 53.32 198.687 52.98C198.914 52.6333 199.221 52.3667 199.607 52.18C199.994 51.9933 200.427 51.9 200.907 51.9ZM201.007 55.3C201.427 55.3 201.767 55.1867 202.027 54.96C202.294 54.7333 202.427 54.4467 202.427 54.1C202.427 53.76 202.297 53.48 202.037 53.26C201.784 53.0333 201.431 52.92 200.977 52.92C200.571 52.92 200.241 53.03 199.987 53.25C199.734 53.4633 199.607 53.75 199.607 54.11C199.607 54.4767 199.734 54.7667 199.987 54.98C200.241 55.1933 200.581 55.3 201.007 55.3ZM207.007 54.71C207.994 54.71 208.724 54.9033 209.197 55.29C209.67 55.67 209.907 56.19 209.907 56.85C209.907 57.27 209.804 57.65 209.597 57.99C209.39 58.33 209.08 58.6 208.667 58.8C208.254 59 207.744 59.1 207.137 59.1C206.637 59.1 206.154 59.03 205.687 58.89C205.22 58.7433 204.827 58.5433 204.507 58.29L205.057 57.28C205.317 57.4933 205.627 57.6633 205.987 57.79C206.354 57.91 206.73 57.97 207.117 57.97C207.577 57.97 207.937 57.8767 208.197 57.69C208.464 57.4967 208.597 57.2333 208.597 56.9C208.597 56.54 208.454 56.27 208.167 56.09C207.887 55.9033 207.404 55.81 206.717 55.81H205.027L205.387 52H209.497V53.09H206.487L206.337 54.71H207.007Z" fill="white"/>
<path d="M177.56 11.36V5H172.84L172.76 7.27C172.69 9.5 172.47 11.3 171.47 11.36H171.12L171.11 13.57H171.8L171.81 12H177.92V13.57H178.61V11.36H177.56ZM173.42 7.34L173.48 5.64H176.83V11.36H172.52C173.19 10.85 173.36 9.16 173.42 7.34ZM184.413 9.37C184.413 7.79 183.343 6.7 181.863 6.7C180.383 6.7 179.293 7.81 179.293 9.37C179.293 10.93 180.413 12.05 182.053 12.05C182.883 12.05 183.613 11.75 184.083 11.19L183.683 10.73C183.283 11.19 182.713 11.42 182.073 11.42C180.923 11.42 180.083 10.69 180.003 9.59H184.403C184.403 9.51 184.413 9.43 184.413 9.37ZM181.863 7.31C182.893 7.31 183.643 8.03 183.733 9.06H180.003C180.093 8.03 180.843 7.31 181.863 7.31ZM189.835 12H190.675L188.455 9.29L190.525 6.74H189.755L187.905 9.05H186.695V6.74H185.985V12H186.695V9.66H187.895L189.835 12ZM193.508 6.7C192.678 6.7 191.898 6.96 191.368 7.41L191.688 7.94C192.118 7.56 192.758 7.32 193.438 7.32C194.418 7.32 194.928 7.81 194.928 8.71V9.03H193.257C191.748 9.03 191.228 9.71 191.228 10.52C191.228 11.43 191.958 12.05 193.148 12.05C194.018 12.05 194.638 11.72 194.958 11.18V12H195.638V8.74C195.638 7.38 194.868 6.7 193.508 6.7ZM193.257 11.49C192.418 11.49 191.928 11.11 191.928 10.5C191.928 9.96 192.258 9.56 193.278 9.56H194.928V10.42C194.648 11.11 194.058 11.49 193.257 11.49ZM200.078 6.87C199.088 6.87 198.298 7.36 197.878 8.17C197.948 6.49 198.628 5.74 200.118 5.41L202.338 4.9L202.218 4.25L199.858 4.79C198.068 5.21 197.198 6.31 197.198 8.6C197.198 10.74 198.178 12.06 199.948 12.06C201.518 12.06 202.598 10.99 202.598 9.44C202.598 7.92 201.558 6.87 200.078 6.87ZM199.968 11.47C198.848 11.47 198.048 10.64 198.048 9.46C198.048 8.29 198.838 7.51 199.968 7.51C201.098 7.51 201.878 8.29 201.878 9.46C201.878 10.64 201.088 11.47 199.968 11.47ZM206.829 6.7C205.959 6.7 205.229 7.08 204.799 7.78V6.74H204.119V13.94H204.829V11.01C205.269 11.69 205.989 12.05 206.829 12.05C208.329 12.05 209.449 10.97 209.449 9.37C209.449 7.78 208.329 6.7 206.829 6.7ZM206.779 11.42C205.659 11.42 204.819 10.6 204.819 9.37C204.819 8.15 205.659 7.32 206.779 7.32C207.889 7.32 208.739 8.15 208.739 9.37C208.739 10.6 207.889 11.42 206.779 11.42ZM213.235 8.6L211.685 8.58V6.74H210.975V12L213.095 12.01C214.495 12.03 215.255 11.4 215.255 10.28C215.255 9.2 214.555 8.61 213.235 8.6ZM213.055 11.47L211.685 11.45V9.11L213.055 9.13C214.035 9.14 214.535 9.5 214.535 10.28C214.535 11.07 214.025 11.48 213.055 11.47Z" fill="white"/>
<defs>
<filter id="filter0_d_2008_281" x="165" y="0" width="65" height="75" filterUnits="userSpaceOnUse" color-interpolation-filters="sRGB">
<feFlood flood-opacity="0" result="BackgroundImageFix"/>
<feColorMatrix in="SourceAlpha" type="matrix" values="0 0 0 0 0 0 0 0 0 0 0 0 0 0 0 0 0 0 127 0" result="hardAlpha"/>
<feOffset dx="5" dy="6"/>
<feGaussianBlur stdDeviation="2"/>
<feColorMatrix type="matrix" values="0 0 0 0 0.0897222 0 0 0 0 0.241933 0 0 0 0 0.633333 0 0 0 0.12 0"/>
<feBlend mode="normal" in2="BackgroundImageFix" result="effect1_dropShadow_2008_281"/>
<feBlend mode="normal" in="SourceGraphic" in2="effect1_dropShadow_2008_281" result="shape"/>
</filter>
</defs>
</svg>
